<svg width="17" height="21" viewBox="0 0 17 21" fill="none" xmlns="http://www.w3.org/2000/svg">
<path d="M8.41269 4.51404C7.64134 4.51404 6.88732 4.74277 6.24597 5.17131C5.60462 5.59985 5.10475 6.20895 4.80957 6.92158C4.51439 7.63421 4.43715 8.41837 4.58763 9.1749C4.73812 9.93142 5.10956 10.6263 5.65499 11.1718C6.20041 11.7172 6.89532 12.0886 7.65184 12.2391C8.40837 12.3896 9.19254 12.3124 9.90517 12.0172C10.6178 11.722 11.2269 11.2221 11.6554 10.5808C12.084 9.93941 12.3127 9.18539 12.3127 8.41404C12.3127 7.90188 12.2118 7.39475 12.0158 6.92158C11.8198 6.44841 11.5326 6.01847 11.1704 5.65633C10.8083 5.29418 10.3783 5.00691 9.90517 4.81091C9.432 4.61492 8.92485 4.51404 8.41269 4.51404ZM8.41269 10.67C7.9663 10.67 7.52993 10.5377 7.15877 10.2897C6.78761 10.0417 6.49833 9.68917 6.3275 9.27676C6.15667 8.86434 6.11198 8.41054 6.19907 7.97272C6.28615 7.53491 6.50111 7.13275 6.81676 6.8171C7.13241 6.50145 7.53457 6.2865 7.97238 6.19941C8.4102 6.11232 8.864 6.15702 9.27641 6.32784C9.68883 6.49867 10.0413 6.78796 10.2893 7.15912C10.5373 7.53028 10.6697 7.96665 10.6697 8.41304C10.6689 9.01139 10.4309 9.585 10.0078 10.0081C9.58467 10.4312 9.01104 10.6693 8.41269 10.67Z" fill="#D9BDA9"/>
<path d="M8.41495 0C6.18442 0.00238235 4.04592 0.889514 2.46869 2.46674C0.891465 4.04397 0.00433547 6.18247 0.00195312 8.413V8.646C0.00195312 10.992 1.34695 13.726 4.00195 16.772C5.19958 18.1433 6.50363 19.418 7.90195 20.584L8.41495 21L8.93095 20.583C10.3293 19.417 11.6334 18.1424 12.831 16.771C15.484 13.725 16.831 10.991 16.831 8.645V8.413C16.8286 6.18195 15.941 4.043 14.3632 2.46568C12.7853 0.88837 10.646 0.00158818 8.41495 0V0ZM15.186 8.646C15.186 12.611 10.077 17.41 8.41495 18.867C6.75195 17.41 1.64395 12.61 1.64395 8.646V8.413C1.64395 7.52375 1.8191 6.64322 2.1594 5.82166C2.4997 5.0001 2.99849 4.25362 3.62728 3.62483C4.25607 2.99603 5.00256 2.49725 5.82411 2.15695C6.64567 1.81665 7.52621 1.6415 8.41545 1.6415C9.3047 1.6415 10.1852 1.81665 11.0068 2.15695C11.8284 2.49725 12.5748 2.99603 13.2036 3.62483C13.8324 4.25362 14.3312 5.0001 14.6715 5.82166C15.0118 6.64322 15.187 7.52375 15.187 8.413L15.186 8.646Z" fill="#D9BDA9"/>
</svg>
