<svg width="15" height="15" viewBox="0 0 15 15" fill="none" xmlns="http://www.w3.org/2000/svg">
<path fill-rule="evenodd" clip-rule="evenodd" d="M6.73647 3.19155C6.92343 3.41437 7.01841 3.70008 7.00206 3.99048C6.98571 4.28088 6.85926 4.55413 6.64848 4.75455C6.54739 4.88813 6.43818 5.01537 6.32147 5.13555C6.26047 5.20055 6.21247 5.24855 6.11147 5.34955L5.53648 5.92455C5.82865 6.73559 6.32331 7.45848 6.97347 8.02455C7.53886 8.67572 8.26194 9.17085 9.07348 9.46255L9.64848 8.88755C9.86285 8.65486 10.1023 8.44659 10.3625 8.26655C10.5628 8.09446 10.8178 7.99934 11.0819 7.99824C11.3459 7.99714 11.6018 8.09014 11.8035 8.26055C12.7375 8.88452 13.6233 9.57781 14.4535 10.3346C14.8028 10.7094 14.997 11.2027 14.997 11.7151C14.997 12.2274 14.8028 12.7207 14.4535 13.0956C14.2205 13.3416 13.9255 13.6366 13.5765 13.9726C11.4675 16.0826 7.01748 14.7986 3.60648 11.3846C0.195475 7.97055 -1.08053 3.52255 1.02348 1.41755C1.40148 1.03355 1.52348 0.909552 1.89348 0.546552C2.27052 0.1953 2.76667 0 3.28198 0C3.79728 0 4.29343 0.1953 4.67048 0.546552C5.42014 1.37882 6.11051 2.26266 6.73647 3.19155ZM10.7065 9.94955L10.1315 10.5246C9.15448 11.5016 7.49047 10.6686 5.90947 9.08655C4.32847 7.50455 3.49947 5.84055 4.47647 4.86355L5.05148 4.28855C5.14348 4.19655 5.18547 4.15355 5.23548 4.10055C5.30447 4.02855 5.36048 3.96455 5.40648 3.90855C4.86064 3.10581 4.26304 2.33952 3.61748 1.61455C3.52048 1.542 3.4026 1.5028 3.28148 1.5028C3.16035 1.5028 3.04247 1.542 2.94548 1.61455C2.58248 1.97155 2.46347 2.09055 2.08748 2.47355C0.734475 3.82755 1.77048 7.41955 4.67448 10.3266C7.57847 13.2336 11.1745 14.2686 12.5335 12.9046C12.8768 12.5712 13.1561 12.2919 13.3715 12.0666C13.4525 11.97 13.4968 11.8481 13.4968 11.7221C13.4968 11.5961 13.4525 11.4741 13.3715 11.3776C12.651 10.7314 11.8869 10.1356 11.0845 9.59455C10.9525 9.70641 10.8264 9.8249 10.7065 9.94955Z" fill="#535656"/>
</svg>
