<svg width="15" height="15" viewBox="0 0 15 15" fill="none" xmlns="http://www.w3.org/2000/svg">
<path fill-rule="evenodd" clip-rule="evenodd" d="M8.25 7.42521V12.7502H6.75V7.42521C5.83947 7.23935 5.03038 6.72202 4.4796 5.97352C3.92882 5.22502 3.67559 4.29867 3.76899 3.37407C3.86239 2.44947 4.29578 1.59248 4.98514 0.969259C5.67449 0.346036 6.57069 0.000976562 7.5 0.000976562C8.42931 0.000976562 9.32551 0.346036 10.0149 0.969259C10.7042 1.59248 11.1376 2.44947 11.231 3.37407C11.3244 4.29867 11.0712 5.22502 10.5204 5.97352C9.96962 6.72202 9.16053 7.23935 8.25 7.42521ZM5.25 9.11821V10.6382C3.05 10.9132 1.5 11.5382 1.5 12.0002C1.5 12.6052 4.184 13.5002 7.5 13.5002C10.816 13.5002 13.5 12.6052 13.5 12.0002C13.5 11.5402 11.95 10.9132 9.75 10.6382V9.11821C12.792 9.45121 15 10.4762 15 12.0002C15 13.8802 11.64 15.0002 7.5 15.0002C3.36 15.0002 0 13.8802 0 12.0002C0 10.4762 2.208 9.45121 5.25 9.11821ZM7.5 6.00021C7.94501 6.00021 8.38002 5.86825 8.75003 5.62102C9.12004 5.37378 9.40843 5.02238 9.57873 4.61125C9.74903 4.20012 9.79358 3.74771 9.70677 3.31126C9.61995 2.8748 9.40566 2.47389 9.09099 2.15922C8.77632 1.84455 8.37541 1.63026 7.93895 1.54344C7.5025 1.45663 7.0501 1.50119 6.63896 1.67148C6.22783 1.84178 5.87643 2.13017 5.62919 2.50018C5.38196 2.87019 5.25 3.3052 5.25 3.75021C5.25 4.34695 5.48705 4.91924 5.90901 5.3412C6.33097 5.76316 6.90326 6.00021 7.5 6.00021Z" fill="white"/>
</svg>
